<svg id="Layer_1" data-name="Layer 1" xmlns="http://www.w3.org/2000/svg" width="2179.81" height="412.54" viewBox="0 0 2179.81 412.54"><defs><style>.cls-1,.cls-2{fill:#fff;}.cls-1{fill-rule:evenodd;}</style></defs><path class="cls-1" d="M2089.41,171.35V141.07c0-22.87-24-36.88-34.54-36.88h-28.15c-10.48,0-34.54,14-34.54,36.88v36.85c0,10.66,4.46,18,14,21.77l40,15.86c4.17,1.81,4.15,1.81,4.15,6.32v29.89a3.81,3.81,0,0,1-3.82,3.79h-11.34a3.81,3.81,0,0,1-3.83-3.79V218.89h-39.12v30.27c0,22.88,24.06,36.88,34.54,36.88h28.15c10.49,0,34.54-14,34.54-36.88V212.32c0-10.5-4.64-18.08-14-21.78l-39.51-15.7c-4.63-1.83-4.63-2.79-4.63-6.56v-29.8a3.82,3.82,0,0,1,3.83-3.8h11.34a3.82,3.82,0,0,1,3.82,3.8v32.87Z"/><path class="cls-1" d="M1942.88,105.67h-62.55v178.8h38.92V209.59h23.63c10.53,0,34.78-11.35,34.78-34.65V140.5C1977.66,117.74,1953.41,105.67,1942.88,105.67Zm-4.11,71a3.91,3.91,0,0,1-3.93,3.9h-15.59V134.8h15.58a3.92,3.92,0,0,1,3.94,3.9Z"/><path class="cls-1" d="M1588.84,174.91V140.49c-.06-22.82-24.26-34.83-34.78-34.83h-62.51V284.47h38.92V209.58h10.84l12.22,74.89h36.88l-13.91-84.56C1583.34,194.09,1588.84,185.73,1588.84,174.91Zm-38.9,1.85a3.79,3.79,0,0,1-3.8,3.81h-15.67V134.8h15.6a3.86,3.86,0,0,1,3.88,3.82Z"/><path class="cls-1" d="M1686.62,190.54l-39.51-15.7c-4.64-1.83-4.64-2.79-4.64-6.56v-29.8a3.82,3.82,0,0,1,3.83-3.8h11.35a3.82,3.82,0,0,1,3.82,3.8v32.87h39.12V141.07c0-22.87-24.06-36.88-34.54-36.88H1637.9c-10.49,0-34.54,14-34.54,36.88v36.85c0,10.66,4.46,18,14,21.77l40,15.86c4.17,1.81,4.16,1.81,4.16,6.32v29.89a3.82,3.82,0,0,1-3.83,3.79h-11.34a3.82,3.82,0,0,1-3.83-3.79V218.89h-39.12v30.27c0,22.88,24.06,36.88,34.54,36.88h28.15c10.49,0,34.54-14,34.54-36.88V212.32C1700.59,201.82,1695.94,194.24,1686.62,190.54Z"/><rect class="cls-2" x="1826.86" y="105.67" width="38.96" height="178.8"/><polygon class="cls-1" points="1773.45 180.57 1754.06 180.57 1754.06 105.67 1715.11 105.67 1715.11 284.47 1754.06 284.47 1754.06 209.58 1773.45 209.58 1773.45 284.47 1812.34 284.47 1812.34 105.67 1773.45 105.67 1773.45 180.57"/><polygon class="cls-1" points="769.32 105.67 730.38 105.67 730.38 284.47 808.26 284.47 808.26 251.5 769.32 251.5 769.32 105.67"/><path class="cls-1" d="M569.51,104.19H541.36c-10.48,0-34.54,14-34.54,36.88V249.49c0,22.86,24.06,36.47,34.54,36.47h28.15c10.48,0,34.54-13.61,34.54-36.47V141.07C604.05,118.2,580,104.19,569.51,104.19Zm-4.58,147.47a3.78,3.78,0,0,1-3.8,3.8H549.74a3.78,3.78,0,0,1-3.8-3.8V138.48a3.82,3.82,0,0,1,3.82-3.8h11.35a3.82,3.82,0,0,1,3.82,3.8Z"/><path class="cls-1" d="M715.86,174.91V140.49c-.06-22.82-24.25-34.83-34.78-34.83H618.57V284.47h38.92V209.58h10.85l12.21,74.89h36.89l-13.92-84.56C710.35,194.09,715.86,185.73,715.86,174.91ZM677,176.76a3.8,3.8,0,0,1-3.81,3.81H657.49V134.8h15.6a3.86,3.86,0,0,1,3.88,3.82Z"/><path class="cls-1" d="M446.74,227.11,433.18,105.67H404.55L391,227.11,377.9,105.67H341l19.28,178.8h48.81l9.76-86.21,9.76,86.21h48.81l19.27-178.8H459.83Z"/><path class="cls-1" d="M885.27,105.67H822.78v178.8h62.49c10.5,0,34.73-12,34.73-34.87V140.39C920,117.51,895.77,105.67,885.27,105.67Zm-4.15,146a3.83,3.83,0,0,1-3.84,3.82H861.67V134.68h15.61a3.82,3.82,0,0,1,3.84,3.81C881.11,170.86,881.11,218.64,881.12,251.64Z"/><path class="cls-1" d="M1040.77,104.19h-28.15c-10.49,0-34.55,14-34.55,36.88V249.49c0,22.86,24.07,36.47,34.55,36.47h28.15c10.48,0,34.54-13.61,34.54-36.47V141.07C1075.31,118.2,1051.25,104.19,1040.77,104.19Zm-4.58,147.47a3.78,3.78,0,0,1-3.8,3.8H1021a3.77,3.77,0,0,1-3.8-3.8V138.48a3.82,3.82,0,0,1,3.83-3.8h11.34a3.82,3.82,0,0,1,3.83,3.8Z"/><path class="cls-1" d="M1398.71,105.67l-19.27,178.8h36.88l4.51-42h22.33l4.52,42h36.87l-19.29-178.8Zm25.65,103.91,7.62-71,7.64,71Z"/><path class="cls-1" d="M1089.83,284.47h38.94V209.58h34.4v-29h-34.4v-42h44.87V105.67h-83.81Z"/><path class="cls-1" d="M1344.78,105.67l-13.09,121.44-13.56-121.44h-28.64l-13.55,121.44-13.09-121.44H1226l19.27,178.8h48.81l9.76-86.21,9.76,86.21h48.81l19.27-178.8Z"/><path class="cls-1" d="M90.4,89.4v195l96.27,39.71,96.27-39.71V89.4ZM266.69,273.58l-80,33-80-33V105.65h160Z"/><polygon class="cls-1" points="250.44 262.7 250.44 194.53 218.76 207.6 218.76 241.48 202.51 248.18 202.51 193.37 210.63 193.37 234.18 183.66 234.18 161.7 202.51 161.7 202.51 153.57 217.94 143.87 217.94 121.9 155.4 121.9 155.4 143.85 170.84 153.57 170.84 161.7 139.16 161.7 139.16 183.67 162.71 193.37 170.84 193.37 170.84 248.18 154.57 241.48 154.57 207.6 122.9 194.53 122.9 262.7 186.67 288.99 250.44 262.7"/></svg>